<svg width="23" height="11" viewBox="0 0 23 11" fill="none" xmlns="http://www.w3.org/2000/svg">
<path d="M15.875 3.50305H0.790979C0.631849 3.50305 0.479237 3.56626 0.366715 3.67878C0.254193 3.79131 0.190979 3.94392 0.190979 4.10305L0.190979 6.90305C0.190979 6.98184 0.206498 7.05986 0.236651 7.13266C0.266804 7.20545 0.311 7.2716 0.366715 7.32731C0.42243 7.38303 0.488574 7.42722 0.561369 7.45738C0.634164 7.48753 0.712186 7.50305 0.790979 7.50305H15.875V9.80305C15.8754 10.04 15.9459 10.2716 16.0778 10.4685C16.2096 10.6654 16.3968 10.8189 16.6157 10.9096C16.8346 11.0003 17.0755 11.0242 17.308 10.9782C17.5405 10.9321 17.7541 10.8183 17.922 10.651L22.222 6.35105C22.3339 6.23956 22.4226 6.10709 22.4832 5.96123C22.5437 5.81537 22.5749 5.65898 22.5749 5.50105C22.5749 5.34311 22.5437 5.18673 22.4832 5.04086C22.4226 4.895 22.3339 4.76253 22.222 4.65105L17.922 0.351047C17.7541 0.183779 17.5405 0.0699603 17.308 0.023942C17.0755 -0.0220764 16.8346 0.00176589 16.6157 0.0924635C16.3968 0.183161 16.2096 0.336652 16.0778 0.533584C15.9459 0.730515 15.8754 0.962068 15.875 1.19905V3.50305Z" fill="#06C167"/>
</svg>
