<svg width="16" height="16" viewBox="0 0 16 16" fill="none" xmlns="http://www.w3.org/2000/svg">
<path d="M6.799 1.21622L4.94 4.98722L0.779999 5.59422C0.612163 5.61961 0.454743 5.69133 0.325452 5.80132C0.196162 5.91131 0.100134 6.0552 0.0481736 6.21679C-0.00378683 6.37839 -0.00961696 6.55128 0.0313392 6.71601C0.0722953 6.88074 0.158412 7.03077 0.279999 7.14922L3.29 10.0822L2.578 14.2252C2.54945 14.3926 2.56827 14.5647 2.63231 14.722C2.69636 14.8792 2.8031 15.0155 2.94048 15.1153C3.07785 15.2151 3.2404 15.2746 3.40977 15.2869C3.57914 15.2993 3.74859 15.2641 3.899 15.1852L7.621 13.2292L11.343 15.1852C11.4934 15.2641 11.6629 15.2993 11.8322 15.2869C12.0016 15.2746 12.1641 15.2151 12.3015 15.1153C12.4389 15.0155 12.5456 14.8792 12.6097 14.722C12.6737 14.5647 12.6925 14.3926 12.664 14.2252L11.948 10.0812L14.958 7.14822C15.0796 7.02977 15.1657 6.87974 15.2067 6.71501C15.2476 6.55028 15.2418 6.37739 15.1898 6.21579C15.1379 6.0542 15.0418 5.91031 14.9125 5.80032C14.7833 5.69033 14.6258 5.61861 14.458 5.59322L10.298 4.98622L8.434 1.21622C8.35862 1.06379 8.24212 0.935474 8.09767 0.845757C7.95321 0.756039 7.78655 0.708496 7.6165 0.708496C7.44645 0.708496 7.27979 0.756039 7.13533 0.845757C6.99087 0.935474 6.87438 1.06379 6.799 1.21622Z" fill="#06C167"/>
</svg>
